<svg width="32" height="32" viewBox="0 0 32 32" fill="none" xmlns="http://www.w3.org/2000/svg">
<g clip-path="url(#clip0_145_1878)">
<path d="M9.33333 25.3333C10.8061 25.3333 12 24.1394 12 22.6667C12 21.1939 10.8061 20 9.33333 20C7.86057 20 6.66666 21.1939 6.66666 22.6667C6.66666 24.1394 7.86057 25.3333 9.33333 25.3333Z" stroke="#199A8E" stroke-width="2" stroke-linecap="round" stroke-linejoin="round"/>
<path d="M22.6667 25.3333C24.1394 25.3333 25.3333 24.1394 25.3333 22.6667C25.3333 21.1939 24.1394 20 22.6667 20C21.1939 20 20 21.1939 20 22.6667C20 24.1394 21.1939 25.3333 22.6667 25.3333Z" stroke="#199A8E" stroke-width="2" stroke-linecap="round" stroke-linejoin="round"/>
<path d="M6.66667 22.6667H4V8.00002C4 7.6464 4.14048 7.30726 4.39052 7.05721C4.64057 6.80716 4.97971 6.66669 5.33333 6.66669H17.3333V22.6667H12H20M25.3333 22.6667H28V14.6667M28 14.6667H17.3333M28 14.6667L24 8.00002H17.3333" stroke="#199A8E" stroke-width="2" stroke-linecap="round" stroke-linejoin="round"/>
<path d="M10.6667 10.6667V16M8 13.3334H13.3333H8Z" stroke="#199A8E" stroke-width="2" stroke-linecap="round" stroke-linejoin="round"/>
</g>
<defs>
<clipPath id="clip0_145_1878">
<rect width="32" height="32" fill="white"/>
</clipPath>
</defs>
</svg>
